<svg xmlns="http://www.w3.org/2000/svg" width="256" height="256" viewBox="0 0 256 256" role="img" aria-labelledby="title desc">
  <title id="title">Dog Groomers Canada logo mark</title>
  <desc id="desc">A cream dog grooming silhouette on a deep green square with a red maple leaf accent.</desc>
  <rect width="256" height="256" rx="46" fill="#073b2a"/>
  <path fill="#f8f4ec" d="M71 144c-8.8 0-14.7-9-11.2-17.1l11-25.4C78 84.8 94.5 74 112.8 74h30.5c8.7 0 17 4.1 22.3 11l10.1 13.2h16.2c5.5 0 10.8 2.2 14.7 6.1l16.9 16.9c5 5 4.1 13.3-1.8 17.2L201 152v39.2c0 5.4-4.4 9.8-9.8 9.8h-18.4c-5.4 0-9.8-4.4-9.8-9.8V171H98v20.2c0 5.4-4.4 9.8-9.8 9.8H69.8c-5.4 0-9.8-4.4-9.8-9.8V144h11Z"/>
  <path fill="#073b2a" d="M116 105.8a10.8 10.8 0 1 1-21.6 0 10.8 10.8 0 0 1 21.6 0Zm84.5 18.4a7.6 7.6 0 1 1-15.2 0 7.6 7.6 0 0 1 15.2 0Z"/>
  <path fill="#d94f45" d="m144 118 8.8-9.9 4.7 12.4 13.2-2.7-6.9 11.4 10.5 8.2-13.2 1.3.6 13.3-10.1-8.7-9.6 9.1.1-13.4-13.3-1 10.2-8.5-7.3-11.2 13.3 2.3Z"/>
  <path fill="#c79a3b" d="M84 158h94v8H84z"/>
</svg>
