<svg xmlns="http://www.w3.org/2000/svg" width="1200" height="630" viewBox="0 0 1200 630" role="img" aria-labelledby="title desc">
  <title id="title">Dog Groomers Canada</title>
  <desc id="desc">Social sharing image for Dog Groomers Canada, a dog grooming near me directory.</desc>
  <rect width="1200" height="630" fill="#073b2a"/>
  <circle cx="980" cy="74" r="210" fill="#0e5a42" opacity=".72"/>
  <circle cx="1016" cy="560" r="220" fill="#c79a3b" opacity=".18"/>
  <g transform="translate(92 112)">
    <rect width="164" height="164" rx="34" fill="#f8f4ec"/>
    <g transform="translate(18 18) scale(.5)">
      <rect width="256" height="256" rx="46" fill="#073b2a"/>
      <path fill="#f8f4ec" d="M71 144c-8.8 0-14.7-9-11.2-17.1l11-25.4C78 84.8 94.5 74 112.8 74h30.5c8.7 0 17 4.1 22.3 11l10.1 13.2h16.2c5.5 0 10.8 2.2 14.7 6.1l16.9 16.9c5 5 4.1 13.3-1.8 17.2L201 152v39.2c0 5.4-4.4 9.8-9.8 9.8h-18.4c-5.4 0-9.8-4.4-9.8-9.8V171H98v20.2c0 5.4-4.4 9.8-9.8 9.8H69.8c-5.4 0-9.8-4.4-9.8-9.8V144h11Z"/>
      <path fill="#073b2a" d="M116 105.8a10.8 10.8 0 1 1-21.6 0 10.8 10.8 0 0 1 21.6 0Zm84.5 18.4a7.6 7.6 0 1 1-15.2 0 7.6 7.6 0 0 1 15.2 0Z"/>
      <path fill="#d94f45" d="m144 118 8.8-9.9 4.7 12.4 13.2-2.7-6.9 11.4 10.5 8.2-13.2 1.3.6 13.3-10.1-8.7-9.6 9.1.1-13.4-13.3-1 10.2-8.5-7.3-11.2 13.3 2.3Z"/>
      <path fill="#c79a3b" d="M84 158h94v8H84z"/>
    </g>
  </g>
  <text x="92" y="352" fill="#f8f4ec" font-family="Inter, Arial, sans-serif" font-size="78" font-weight="800" letter-spacing="0">Dog Groomers Canada</text>
  <text x="96" y="420" fill="#e7d6ad" font-family="Inter, Arial, sans-serif" font-size="34" font-weight="700" letter-spacing="0">Find dog grooming near me across Canada</text>
  <text x="98" y="492" fill="#f8f4ec" font-family="Inter, Arial, sans-serif" font-size="28" font-weight="600" letter-spacing="0">5,729 local listings | city pages | ratings | services | maps</text>
  <path fill="#d94f45" d="m1012 286 23-26 13 32 35-7-18 31 28 21-35 4 2 35-27-23-25 24v-35l-35-3 27-22-20-30 35 6Z"/>
</svg>
